<svg width="12" height="13" viewBox="0 0 12 13" fill="none" xmlns="http://www.w3.org/2000/svg">
<path d="M6.20672 9.44042L8.5711 10.9382C8.87335 11.1294 9.24835 10.8448 9.15872 10.4919L8.47585 7.80504C8.45656 7.7302 8.45878 7.65143 8.48227 7.5778C8.50575 7.50416 8.54954 7.43865 8.6086 7.38879L10.7288 5.62442C11.0071 5.39267 10.8638 4.93029 10.5057 4.90704L7.7371 4.72704C7.66255 4.72175 7.59105 4.6954 7.5309 4.65106C7.47075 4.60671 7.42444 4.54619 7.39735 4.47654L6.3646 1.87629C6.33648 1.80239 6.28656 1.73879 6.22146 1.69391C6.15636 1.64903 6.07916 1.625 6.0001 1.625C5.92103 1.625 5.84383 1.64903 5.77873 1.69391C5.71364 1.73879 5.66372 1.80239 5.6356 1.87629L4.60285 4.47654C4.57581 4.54626 4.52952 4.60686 4.46937 4.65127C4.40922 4.69569 4.33768 4.7221 4.2631 4.72742L1.49447 4.90742C1.13672 4.93029 0.992723 5.39267 1.27135 5.62442L3.3916 7.38917C3.45059 7.43899 3.49434 7.50444 3.51782 7.578C3.5413 7.65156 3.54356 7.73025 3.52435 7.80504L2.89135 10.2969C2.78372 10.7203 3.2341 11.0619 3.59635 10.832L5.79385 9.44042C5.85561 9.40115 5.92728 9.3803 6.00047 9.3803C6.07366 9.3803 6.14533 9.40115 6.2071 9.44042H6.20672Z" fill="#FF8A00"/>
</svg>
