<svg width="10" height="10" viewBox="0 0 10 10" fill="none" xmlns="http://www.w3.org/2000/svg">
<path d="M5.20672 8.44042L7.5711 9.93817C7.87335 10.1294 8.24835 9.84479 8.15872 9.49192L7.47585 6.80504C7.45656 6.7302 7.45878 6.65143 7.48227 6.5778C7.50575 6.50416 7.54954 6.43865 7.6086 6.38879L9.72885 4.62442C10.0071 4.39267 9.86385 3.93029 9.50572 3.90704L6.7371 3.72704C6.66255 3.72175 6.59105 3.6954 6.5309 3.65106C6.47075 3.60671 6.42444 3.54619 6.39735 3.47654L5.3646 0.876293C5.33648 0.802395 5.28656 0.73879 5.22146 0.693911C5.15636 0.649033 5.07916 0.625 5.0001 0.625C4.92103 0.625 4.84383 0.649033 4.77873 0.693911C4.71364 0.73879 4.66372 0.802395 4.6356 0.876293L3.60285 3.47654C3.57581 3.54626 3.52952 3.60686 3.46937 3.65127C3.40922 3.69569 3.33768 3.7221 3.2631 3.72742L0.494473 3.90742C0.136723 3.93029 -0.00727701 4.39267 0.271348 4.62442L2.3916 6.38917C2.45059 6.43899 2.49434 6.50444 2.51782 6.578C2.5413 6.65156 2.54356 6.73025 2.52435 6.80504L1.89135 9.29692C1.78372 9.72029 2.2341 10.0619 2.59635 9.83204L4.79385 8.44042C4.85561 8.40115 4.92728 8.3803 5.00047 8.3803C5.07366 8.3803 5.14533 8.40115 5.2071 8.44042H5.20672Z" fill="#CCCCCC"/>
</svg>
