<svg width="61" height="33" viewBox="0 0 61 33" fill="none" xmlns="http://www.w3.org/2000/svg">
<path fill-rule="evenodd" clip-rule="evenodd" d="M26.1016 28.5613C23.5176 30.7389 20.1031 32.0644 16.5039 32.0644C8.01367 32.0644 1.20768 25.0572 1.20768 16.4646C1.20768 7.848 8.01367 0.84082 16.5039 0.84082C22.1334 0.84082 27.0248 3.96557 29.7008 8.70008C30.0699 8.79483 30.3469 8.88958 30.7156 8.98434C28.0399 3.68166 22.6871 0.0834961 16.5039 0.0834961C7.64428 0.0834961 0.469238 7.37458 0.469238 16.4646C0.469238 25.5313 7.64462 32.9168 16.5039 32.9168C20.6569 32.9168 24.4404 31.2127 27.3015 28.5613H26.1016Z" fill="#CCCCCC"/>
<path fill-rule="evenodd" clip-rule="evenodd" d="M18.5342 27.8042H60.4086V21.3652H18.5342V27.8042Z" fill="#CCCCCC"/>
<path fill-rule="evenodd" clip-rule="evenodd" d="M20.6566 9.83592L20.4719 10.6884H18.4416C17.8879 16.7487 17.5188 21.6484 17.1497 23.9214C16.3193 27.993 12.6278 30.2653 10.2284 30.2653C9.39796 30.2653 8.38281 29.887 8.38281 28.8454C8.38281 28.2773 8.84421 27.8039 9.39796 27.8039C10.2284 27.8039 10.8745 28.4664 11.3359 29.2238C12.6281 28.4664 12.8125 27.8039 13.3662 25.1522C13.6432 23.9214 14.3814 15.1386 14.7504 10.6884H13.0892L13.2739 9.83592H14.9351L15.1198 8.32128C16.0426 2.7347 20.0108 2.07178 21.4877 2.07178C22.2258 2.07178 23.7024 2.45044 23.7024 3.49202C23.7024 4.15459 23.1486 4.43885 22.5949 4.43885C21.5797 4.43885 21.1183 3.87068 20.6566 3.01826C18.9953 3.77593 18.7186 7.94227 18.5339 9.83557H20.6566V9.83592ZM20.4722 17.6004C20.4722 13.1505 23.241 9.26811 27.9473 9.26811C30.9008 9.26811 32.5613 10.594 32.5613 13.5292C32.5613 17.9794 29.7929 21.7435 25.0862 21.7435C22.1335 21.7435 20.4722 20.4177 20.4722 17.6004ZM28.7781 14.1921C28.7781 13.0558 28.6858 10.31 27.0249 10.31C24.6255 10.31 24.2561 15.1389 24.2561 16.9382C24.2561 17.9798 24.3485 20.797 26.0094 20.797C28.4087 20.7967 28.7781 15.991 28.7781 14.1921ZM33.5768 17.6004C33.5768 13.1505 36.4379 9.26811 41.1442 9.26811C44.0053 9.26811 45.7352 10.594 45.7352 13.5292C45.7352 17.9794 42.8975 21.7435 38.1912 21.7435C35.3301 21.7435 33.5768 20.4177 33.5768 17.6004ZM41.9747 14.1921C41.9747 13.0558 41.8827 10.31 40.2215 10.31C37.7298 10.31 37.453 15.1389 37.453 16.9382C37.453 17.9798 37.4531 20.797 39.114 20.797C41.6053 20.7967 41.9747 15.991 41.9747 14.1921ZM60.04 20.3233C58.3784 21.0806 56.3481 21.7432 54.9643 21.7432C54.2262 21.7432 54.3178 20.6065 54.3178 20.1334C54.3178 19.5659 54.3178 18.8076 54.5029 17.3169L54.4102 17.2218C53.4874 19.1866 51.6418 21.7432 49.2424 21.7432C47.3965 21.7432 46.5657 19.7547 46.5657 18.0742C46.5657 13.9075 49.7955 9.45762 54.4102 9.45762H55.333C55.7024 6.52202 55.7024 5.29128 55.7024 4.3441C55.7024 4.06019 55.7024 3.77593 55.4253 3.77593C55.1483 3.77593 54.7796 3.87068 53.8564 4.15459L53.6721 3.39727C55.518 2.7347 57.5483 2.35569 59.3936 2.26093C59.5786 2.26093 59.6706 2.26093 59.6706 2.63959C59.6706 5.10142 57.8247 17.9791 57.8247 19.2817C57.8247 19.5659 57.8247 20.039 58.1941 20.039C58.3784 20.039 59.0249 19.8491 59.763 19.5656L60.04 20.3233ZM54.0408 16.2753C54.6872 14.6655 54.8716 13.0558 55.241 10.594C55.0559 10.4988 54.8716 10.4988 54.7796 10.4988C51.9185 10.4988 50.5339 14.8547 50.5339 17.2218C50.5339 17.7899 50.6266 19.1866 51.4571 19.1866C52.6569 19.1869 53.6721 17.2221 54.0408 16.2753Z" fill="#CCCCCC"/>
<path fill-rule="evenodd" clip-rule="evenodd" d="M21.0259 22.8799H22.041L23.3329 24.8683V22.8799H24.1637V26.6672H23.4252L21.8563 24.49V26.6672H21.0259V22.8799ZM26.5627 22.8799H29.4238V23.6376H27.6702V24.2998H28.778V25.1522H27.6702V25.8148H29.4238V26.6672H26.5627V22.8799ZM32.4696 23.6376H31.4544V22.8799H34.5919V23.6376H33.5767V26.6672H32.4696V23.6376ZM36.4378 22.8799H37.5446L38.0067 24.8683H38.0984L38.5598 22.8799H39.4833L39.9443 24.8683H40.037L40.4984 22.8799H41.3285L40.4057 26.6672H39.4833L38.9292 24.5841L38.3754 26.6672H37.453L36.4378 22.8799ZM45.0894 26.7623C44.0053 26.7623 43.2668 26.005 43.2668 24.7736C43.2668 23.5428 44.0049 22.7852 45.0894 22.7852C46.1973 22.7852 46.8427 23.5425 46.8427 24.7736C46.8427 26.0047 46.1969 26.7623 45.0894 26.7623ZM44.4437 24.7732C44.4437 25.8148 44.7207 26.0047 45.0894 26.0047C45.4588 26.0047 45.7352 25.8148 45.7352 24.7732C45.7352 23.7323 45.4588 23.5425 45.0894 23.5425C44.628 23.5425 44.4437 23.8267 44.4437 24.7732ZM49.0573 22.8799H50.9033C52.1028 22.8799 52.3798 23.4474 52.3798 23.9215C52.3798 24.3949 52.1028 24.7732 51.6417 24.8683L52.3798 26.6672H51.1803L50.6266 25.0575H50.1652V26.6672H49.0573V22.8799ZM50.1652 24.3949H50.7189C50.9953 24.3949 51.2727 24.205 51.2727 24.0159C51.2727 23.7323 51.0876 23.5425 50.7189 23.5425H50.1652V24.3949ZM54.6872 22.8799H55.7947V24.3949L56.9018 22.8799H57.917L56.9942 24.1106L58.1013 26.6672H56.9942L56.2561 25.0575L55.7947 25.7207V26.6672H54.6872V22.8799Z" fill="white"/>
</svg>
