<svg width="45" height="32" viewBox="0 0 45 32" fill="none" xmlns="http://www.w3.org/2000/svg">
<rect x="0.5" y="0.5" width="44" height="30.7647" rx="4.79412" fill="#1A1A1A" stroke="#333333"/>
<path fill-rule="evenodd" clip-rule="evenodd" d="M28.5585 24.3928C33.5149 24.3928 37.5329 20.4226 37.5329 15.5251C37.5329 10.6277 33.5149 6.65747 28.5585 6.65747C26.3371 6.65747 24.3042 7.45493 22.7371 8.77591C21.17 7.45497 19.1372 6.65755 16.9158 6.65755C11.9594 6.65755 7.94141 10.6277 7.94141 15.5252C7.94141 20.4227 11.9594 24.3928 16.9158 24.3928C19.1372 24.3928 21.1701 23.5954 22.7372 22.2744C24.3043 23.5953 26.3371 24.3928 28.5585 24.3928Z" fill="#ED0006"/>
<path fill-rule="evenodd" clip-rule="evenodd" d="M22.7373 22.2744C24.6669 20.6479 25.8905 18.2277 25.8905 15.5251C25.8905 12.8225 24.6669 10.4023 22.7373 8.7758C24.3044 7.45488 26.3372 6.65747 28.5585 6.65747C33.515 6.65747 37.533 10.6277 37.533 15.5251C37.533 20.4226 33.515 24.3928 28.5585 24.3928C26.3372 24.3928 24.3044 23.5954 22.7373 22.2744Z" fill="#F9A000"/>
<path fill-rule="evenodd" clip-rule="evenodd" d="M22.7371 22.2744C24.6667 20.6479 25.8903 18.2277 25.8903 15.5251C25.8903 12.8226 24.6667 10.4024 22.7371 8.77588C20.8075 10.4024 19.584 12.8226 19.584 15.5251C19.584 18.2277 20.8075 20.6479 22.7371 22.2744Z" fill="#FF5E00"/>
</svg>
