<svg width="18" height="19" viewBox="0 0 18 19" fill="none" xmlns="http://www.w3.org/2000/svg">
<path d="M9.30984 13.9106L12.8564 16.1573C13.3098 16.4441 13.8723 16.0172 13.7378 15.4879L12.7135 11.4576C12.6846 11.3453 12.6879 11.2271 12.7232 11.1167C12.7584 11.0062 12.8241 10.908 12.9127 10.8332L16.093 8.18663C16.5104 7.839 16.2955 7.14544 15.7583 7.11056L11.6054 6.84056C11.4936 6.83263 11.3863 6.7931 11.2961 6.72658C11.2059 6.66006 11.1364 6.56928 11.0958 6.46481L9.54665 2.56444C9.50447 2.45359 9.42959 2.35819 9.33195 2.29087C9.2343 2.22355 9.1185 2.1875 8.9999 2.1875C8.8813 2.1875 8.7655 2.22355 8.66786 2.29087C8.57021 2.35819 8.49533 2.45359 8.45315 2.56444L6.90403 6.46481C6.86348 6.56939 6.79404 6.66028 6.70381 6.72691C6.61358 6.79354 6.50628 6.83315 6.3944 6.84113L2.24147 7.11113C1.70484 7.14544 1.48884 7.839 1.90678 8.18663L5.08715 10.8338C5.17564 10.9085 5.24126 11.0067 5.27648 11.117C5.3117 11.2273 5.3151 11.3454 5.28628 11.4576L4.33678 15.1954C4.17534 15.8304 4.8509 16.3429 5.39428 15.9981L8.69053 13.9106C8.78317 13.8517 8.89068 13.8204 9.00046 13.8204C9.11025 13.8204 9.21776 13.8517 9.3104 13.9106H9.30984Z" fill="#FF8A00"/>
</svg>
